<svg id="Capa_1" enable-background="new 0 0 512 512" height="512" viewBox="0 0 512 512" width="512" xmlns="http://www.w3.org/2000/svg"><g><g><path d="m404.147 447.781c-.411 4.735-1.366 9.306-2.815 13.662-1.818 5.537-4.417 10.714-7.673 15.408-10.128 14.628-26.543 24.509-45.362 25.865-95.716 6.893-191.432 6.893-287.148 0-18.819-1.356-35.234-11.238-45.362-25.865-3.256-4.694-5.855-9.871-7.674-15.408-1.448-4.356-2.404-8.926-2.815-13.662-2.907-33.148-4.622-66.297-5.136-99.445-.082-5.136-.133-10.272-.144-15.408-.051-11.104.031-22.219.257-33.333.092-5.136.226-10.272.39-15.408.318-10.396.76-20.791 1.325-31.186.267-5.136.565-10.272.904-15.408.678-10.519 1.479-21.027 2.404-31.536 2.589-29.563 26.256-52.809 55.85-54.945 95.716-6.883 191.432-6.883 287.148 0 29.594 2.136 53.261 25.382 55.85 54.945 7.069 80.574 7.069 161.149.001 241.724z" fill="#b3e59f"/><path d="m94.663 504.848c-11.171-.61-22.341-1.321-33.512-2.124-29.599-2.134-53.261-25.38-55.853-54.938-7.064-80.583-7.064-161.156 0-241.729 2.592-29.558 26.254-52.814 55.853-54.938 11.171-.803 22.331-1.514 33.502-2.124-18.479 9.86-31.51 28.552-33.441 50.568-7.44 84.903-7.44 169.806 0 254.709 1.931 22.014 14.962 40.716 33.451 50.576z" fill="#78c2a4"/><path d="m338.761 395.313h65.272c11.234 0 20.342-9.107 20.342-20.342v-98.046c0-11.234-9.107-20.342-20.342-20.342h-65.272c-38.309 0-69.365 31.056-69.365 69.365.001 38.309 31.056 69.365 69.365 69.365z" fill="#ccf49f"/><path d="m322.343 375.001c12.553 12.553 29.893 20.319 49.043 20.319h-32.628c-19.15 0-36.49-7.765-49.043-20.319-12.553-12.553-20.319-29.903-20.319-49.053 0-38.309 31.052-69.362 69.362-69.362h32.628c-38.31 0-69.362 31.052-69.362 69.362 0 19.15 7.766 36.5 20.319 49.053z" fill="#80cb8e"/><circle cx="338.761" cy="325.948" fill="#f4dd45" r="32.625"/><path d="m347.872 357.282c-2.887.843-5.946 1.291-9.107 1.291-18.021 0-32.627-14.606-32.627-32.627 0-18.011 14.606-32.618 32.627-32.618 3.161 0 6.221.447 9.107 1.291-13.59 3.934-23.52 16.476-23.52 31.327-.001 14.859 9.93 27.402 23.52 31.336z" fill="#ffc250"/></g><path d="m378.381 203.138h-101.705c-4.255 0-7.704-3.449-7.704-7.704s3.449-7.704 7.704-7.704h101.705c4.255 0 7.704 3.449 7.704 7.704s-3.448 7.704-7.704 7.704z" fill="#f4dd45"/><g><circle cx="276.676" cy="195.43" fill="#ccf49f" r="24.844"/></g><path d="m125.094 213.051-37.699 37.699c-1.449 1.438-3.4 2.25-5.444 2.25h-79.958c.267-5.136.565-10.272.904-15.408h75.86l35.439-35.429c3.01-3.009 7.889-3.009 10.899 0 3.009 3.01 3.009 7.879-.001 10.888z" fill="#f4dd45"/><path d="m201.961 258.691-38.654 38.654c-1.448 1.438-3.41 2.25-5.455 2.25h-157.575c.092-5.136.226-10.272.39-15.408h154l36.394-36.394c3.01-3.009 7.889-3.009 10.899 0s3.01 7.888.001 10.898z" fill="#f4dd45"/><g><g><circle cx="156.27" cy="419.283" fill="#ccf49f" r="24.844"/></g><path d="m151.073 435.372-39.219 39.229c-1.449 1.438-3.4 2.25-5.444 2.25h-90.622c-3.256-4.694-5.855-9.871-7.674-15.408h95.1l36.969-36.959c3.01-3.01 7.879-3.01 10.889 0 3.01 2.999 3.01 7.878.001 10.888z" fill="#f4dd45"/></g><g fill="#f4dd45"><path d="m401.333 461.442c-1.818 5.537-4.417 10.714-7.673 15.408h-84.684c-2.044 0-3.996-.812-5.444-2.25l-40.432-40.44c-3.01-3.01-3.01-7.879 0-10.889 3.01-3.009 7.889-3.009 10.889 0l38.181 38.171z"/><path d="m215.427 340.632c0 4.252-3.452 7.704-7.704 7.704h-207.559c-.082-5.136-.133-10.272-.144-15.408h207.703c4.253 0 7.704 3.451 7.704 7.704z"/><circle cx="407.696" cy="108.418" r="104.304"/></g><circle cx="407.696" cy="108.418" fill="#ffc250" r="70.431"/><path d="m407.696 185.069c-42.266 0-76.651-34.386-76.651-76.651s34.386-76.651 76.651-76.651 76.651 34.385 76.651 76.651-34.385 76.651-76.651 76.651zm0-140.862c-35.406 0-64.211 28.805-64.211 64.211s28.805 64.211 64.211 64.211 64.211-28.805 64.211-64.211c.001-35.406-28.805-64.211-64.211-64.211z" fill="#e7a52e"/><path d="m437.012 125.883c0-8.784-4.255-16.593-10.811-21.476 2.799-3.925 4.452-8.72 4.452-13.897 0-7.974-3.913-15.048-9.916-19.414v-9.091c0-4.255-3.449-7.704-7.704-7.704s-7.704 3.449-7.704 7.704v4.508h-5.75v-4.508c0-4.255-3.449-7.704-7.704-7.704s-7.704 3.449-7.704 7.704v4.757c-3.327.853-5.789 3.862-5.789 7.454v32.607.053 38.152c0 2.049.817 4.014 2.269 5.46.981.978 2.201 1.655 3.52 1.994v4.758c0 4.255 3.449 7.704 7.704 7.704s7.704-3.449 7.704-7.704v-4.562c2.009-.008 3.991-.015 5.75-.02v4.581c0 4.255 3.449 7.704 7.704 7.704s7.704-3.449 7.704-7.704v-6.735c9.559-4.088 16.275-13.584 16.275-24.621zm-43.223-26.765v-17.198h12.865c4.737 0 8.59 3.854 8.59 8.59s-3.853 8.59-8.59 8.59c-1.505 0-4.331.008-7.418.019h-5.447zm16.458 38.122c-3.01 0-10.58.028-16.458.052v-22.744c1.772-.007 3.665-.014 5.471-.021h10.986c6.262 0 11.357 5.094 11.357 11.357s-5.095 11.356-11.356 11.356z" fill="#f4dd45"/><g><circle cx="259.109" cy="419.283" fill="#ccf49f" r="24.844"/></g><g><circle cx="131.819" cy="195.43" fill="#ccf49f" r="24.844"/></g><g><circle cx="207.723" cy="242.028" fill="#ccf49f" r="24.844"/></g><g><circle cx="222.97" cy="340.627" fill="#ccf49f" r="24.844"/></g></g></svg>