<svg id="Capa_1" enable-background="new 0 0 511.996 511.996" height="512" viewBox="0 0 511.996 511.996" width="512" xmlns="http://www.w3.org/2000/svg"><g><g><path d="m9.568 256.005c-.5 6.93-.9 13.86-1.21 20.79-.3 6.59-.53 13.19-.66 19.79-1.03 47.48 2.03 94.96 9.17 142.44 1.93 12.8 12.57 22.5 25.48 23.3 142.43 8.84 284.87 8.84 427.3 0 12.91-.8 23.55-10.5 25.48-23.3 7.14-47.48 10.2-94.96 9.17-142.44-.13-6.6-.36-13.2-.66-19.79-.31-6.93-.71-13.86-1.21-20.79" fill="#5aa687"/><path d="m42.352 49.672c142.43-8.836 284.861-8.836 427.291 0 12.915.801 23.554 10.505 25.48 23.301 12.499 83.051 12.499 166.103 0 249.154-1.926 12.796-12.565 22.5-25.48 23.301-142.43 8.835-284.861 8.835-427.291 0-12.915-.801-23.554-10.505-25.48-23.301-12.499-83.052-12.499-166.103 0-249.154 1.926-12.795 12.565-22.499 25.48-23.301z" fill="#5aa687"/><path d="m93.561 314.9c0-25.779-20.898-46.676-46.676-46.676-1.844 0-3.66.119-5.449.327-4.182-47.256-4.182-94.744 0-142.001 1.789.208 3.604.327 5.449.327 25.778 0 46.676-20.898 46.676-46.676 0-.844-.025-1.683-.069-2.516 54.157-2.572 108.62-3.889 162.506-3.889 52.041 0 104.624 1.213 156.946 3.613-.055.925-.09 1.854-.09 2.793 0 25.778 20.898 46.676 46.676 46.676 3.771 0 7.433-.459 10.946-1.303 4.298 47.904 4.298 96.05 0 143.954-3.512-.845-7.174-1.303-10.946-1.303-25.779 0-46.676 20.898-46.676 46.676 0 .938.036 1.868.09 2.793-52.322 2.4-104.905 3.613-156.946 3.613-53.886 0-108.349-1.317-162.506-3.889.044-.836.069-1.675.069-2.519z" fill="#78c2a4"/><g fill="#5aa687"><ellipse cx="255.999" cy="197.55" rx="97.741" ry="88.231"/><g><circle cx="106.112" cy="197.55" r="24.126"/><circle cx="405.886" cy="197.55" r="24.126"/></g></g></g><g><path d="m511.726 218.152-.034.001c1.193-48.855-1.85-97.776-9.148-146.301-2.44-16.177-16.08-28.653-32.431-29.667-10.539-.655-21.61-1.286-32.904-1.874-4.183-.224-7.665 2.964-7.881 7.099-.215 4.137 2.964 7.665 7.1 7.88 11.245.586 22.266 1.214 32.757 1.866 9.343.579 17.135 7.7 18.526 16.93 12.321 81.925 12.321 165.004.001 246.926-1.393 9.233-9.185 16.354-18.527 16.933-141.461 8.77-284.912 8.77-426.373 0-9.343-.579-17.135-7.701-18.526-16.93-12.322-81.925-12.322-165.004-.002-246.926 1.393-9.233 9.185-16.354 18.527-16.933 120.744-7.482 243.129-8.594 363.747-3.302 4.161.181 7.641-3.026 7.822-7.164.182-4.138-3.026-7.64-7.164-7.821-121.15-5.315-244.064-4.199-365.333 3.317-16.352 1.013-29.991 13.49-32.433 29.67-7.297 48.522-10.34 97.442-9.147 146.297l-.034-.001c-.347 13.403-.348 66.016-.073 78.423-1.024 47.613 2.088 95.914 9.254 143.569 2.438 16.177 16.078 28.654 32.431 29.667 71.047 4.41 142.568 6.614 214.115 6.614 71.53 0 143.085-2.205 214.114-6.614 16.354-1.013 29.993-13.49 32.433-29.67 7.166-47.654 10.278-95.958 9.253-143.559.278-12.413.276-65.024-.07-78.43zm-469.842 134.764c71.047 4.405 142.567 6.607 214.114 6.606 71.53 0 143.085-2.203 214.114-6.606 7.536-.467 14.493-3.373 20.046-7.951-.759 5.887-1.564 11.768-2.447 17.631-1.393 9.233-9.185 16.354-18.527 16.933-141.459 8.77-284.91 8.77-426.373 0-9.343-.579-17.135-7.7-18.527-16.931-.883-5.864-1.688-11.745-2.447-17.633 5.554 4.578 12.51 7.484 20.047 7.951zm447.982 33.87c-.676 5.137-1.384 10.27-2.154 15.39-1.393 9.233-9.185 16.354-18.527 16.933-141.461 8.77-284.912 8.77-426.373 0-9.343-.579-17.135-7.7-18.526-16.93-.771-5.121-1.479-10.255-2.155-15.393 5.504 4.44 12.348 7.255 19.753 7.714 71.038 4.404 142.576 6.606 214.114 6.606s143.076-2.202 214.114-6.606c7.405-.458 14.25-3.274 19.754-7.714zm-20.682 68.054c-141.457 8.78-284.909 8.78-426.372 0-9.344-.579-17.136-7.7-18.526-16.93-.555-3.69-1.076-7.385-1.581-11.082 5.402 4.176 12.032 6.809 19.18 7.252 71.038 4.404 142.576 6.606 214.114 6.606s143.076-2.202 214.114-6.606c7.148-.443 13.778-3.077 19.181-7.253-.505 3.696-1.026 7.391-1.581 11.08-1.393 9.233-9.185 16.354-18.529 16.933z"/><path d="m255.998 66.291c-53.553 0-108.349 1.312-162.865 3.898-2.002.095-3.883.988-5.223 2.479s-2.027 3.456-1.909 5.457c.038.638.057 1.317.057 2.076 0 21.604-17.571 39.18-39.17 39.18-1.479 0-2.977-.091-4.575-.279-2.019-.236-4.035.353-5.606 1.631-1.572 1.279-2.56 3.139-2.738 5.157-4.206 47.551-4.206 95.771 0 143.322.179 2.018 1.166 3.878 2.738 5.157 1.571 1.278 3.588 1.868 5.606 1.631 1.601-.188 3.097-.279 4.575-.279 21.599 0 39.17 17.576 39.17 39.18 0 .76-.019 1.438-.057 2.076-.118 2.001.568 3.965 1.908 5.456 1.339 1.491 3.22 2.384 5.221 2.479 8.948.428 18.062.822 27.087 1.173 4.123.163 7.624-3.064 7.785-7.203s-3.063-7.625-7.203-7.786c-6.633-.258-13.313-.539-19.938-.84-2.323-27.243-24.892-48.8-52.551-49.517-3.329-41.968-3.329-84.409 0-126.377 27.659-.717 50.228-22.273 52.551-49.516 51.962-2.36 104.118-3.556 155.138-3.556 49.325 0 99.598 1.108 149.536 3.295 2.24 27.831 25.602 49.795 53.994 49.795 1.385 0 2.771-.054 4.155-.162 3.347 42.066 3.347 84.597 0 126.663-1.384-.108-2.771-.162-4.155-.162-28.395 0-51.757 21.961-53.994 49.795-49.937 2.187-100.209 3.295-149.536 3.295-34.636 0-70.056-.557-105.275-1.656-4.173-.127-7.602 3.123-7.73 7.262-.13 4.14 3.122 7.601 7.262 7.73 35.376 1.104 70.953 1.664 105.744 1.664 51.885 0 104.807-1.221 157.294-3.628 2.013-.092 3.903-.991 5.247-2.493 1.343-1.502 2.025-3.481 1.893-5.492-.049-.743-.073-1.516-.073-2.298 0-21.604 17.571-39.18 39.17-39.18 3.073 0 6.166.37 9.189 1.101 2.119.511 4.358.075 6.132-1.196 1.772-1.271 2.904-3.251 3.099-5.424 4.327-48.207 4.327-97.094 0-145.301-.194-2.173-1.326-4.153-3.099-5.424-1.773-1.272-4.015-1.708-6.131-1.196-3.024.73-6.117 1.1-9.19 1.1-21.599 0-39.17-17.576-39.17-39.18 0-.782.024-1.555.073-2.298.133-2.01-.55-3.99-1.893-5.492-1.344-1.502-3.234-2.4-5.247-2.493-52.491-2.404-105.412-3.624-157.296-3.624z"/><path d="m361.24 197.55c0-52.786-47.211-95.731-105.241-95.731s-105.241 42.945-105.241 95.731 47.211 95.731 105.241 95.731 105.241-42.945 105.241-95.731zm-195.482 0c0-44.515 40.482-80.731 90.241-80.731s90.241 36.216 90.241 80.731-40.482 80.731-90.241 80.731-90.241-36.216-90.241-80.731z"/><path d="m74.485 197.55c0 17.439 14.188 31.626 31.627 31.626 17.438 0 31.626-14.188 31.626-31.626s-14.188-31.626-31.626-31.626c-17.439 0-31.627 14.187-31.627 31.626zm48.253 0c0 9.168-7.458 16.626-16.626 16.626s-16.627-7.458-16.627-16.626 7.459-16.626 16.627-16.626 16.626 7.458 16.626 16.626z"/><path d="m437.513 197.55c0-17.439-14.188-31.626-31.626-31.626-17.439 0-31.627 14.188-31.627 31.626s14.188 31.626 31.627 31.626c17.438.001 31.626-14.187 31.626-31.626zm-48.253 0c0-9.168 7.459-16.626 16.627-16.626s16.626 7.458 16.626 16.626-7.458 16.626-16.626 16.626-16.627-7.458-16.627-16.626z"/><path d="m262.846 252.212v-5.57c16.588-2.887 26.69-14.912 28.347-26.764 1.917-13.713-6.881-25.496-22.413-30.018-9.922-2.889-20.924-6.396-27.294-10.511-3.085-1.993-3.063-5.181-2.776-6.904.595-3.565 3.514-7.942 9.926-9.533 13.947-3.46 22.927 2.787 23.428 3.146 3.298 2.456 7.962 1.8 10.452-1.479 2.505-3.298 1.862-8.003-1.436-10.509-.407-.309-7.185-5.339-18.233-6.797v-4.384c0-4.142-3.357-7.5-7.5-7.5s-7.5 3.358-7.5 7.5v4.856c-.928.176-1.865.371-2.822.608-11.093 2.752-19.379 11.24-21.11 21.625-1.474 8.841 2.141 17.259 9.434 21.971 6.442 4.161 15.493 7.729 31.239 12.313 8.332 2.425 12.615 7.36 11.751 13.539-1.307 9.345-11.812 14.442-21.033 14.492-10.586.058-14.74-.329-23.692-5.153-3.648-1.965-8.196-.601-10.16 3.045-1.965 3.646-.602 8.195 3.045 10.16 9.121 4.914 15.375 6.421 23.35 6.821v5.046c0 4.142 3.357 7.5 7.5 7.5s7.497-3.358 7.497-7.5z"/></g></g></svg>