<svg height="512" viewBox="0 0 512 512" width="512" xmlns="http://www.w3.org/2000/svg" xmlns:xlink="http://www.w3.org/1999/xlink"><linearGradient id="linear-gradient" gradientUnits="userSpaceOnUse" x1="71.355" x2="429.765" y1="515.205" y2="156.795"><stop offset="0" stop-color="#f9cc5c"/><stop offset=".265" stop-color="#f9cd60"/><stop offset=".503" stop-color="#f9d06b"/><stop offset=".732" stop-color="#fad67d"/><stop offset=".953" stop-color="#fbde97"/><stop offset="1" stop-color="#fbe09d"/></linearGradient><linearGradient id="linear-gradient-2" gradientUnits="userSpaceOnUse" x1="115.515" x2="412.485" y1="484.485" y2="187.515"><stop offset="0" stop-color="#fcebbe"/><stop offset=".351" stop-color="#fcecc2"/><stop offset=".711" stop-color="#fdf0ce"/><stop offset="1" stop-color="#fef5de"/></linearGradient><linearGradient id="linear-gradient-3" x1="370.077" x2="476.006" xlink:href="#linear-gradient" y1="388.965" y2="283.035"/><g id="_15-wallet" data-name="15-wallet"><g id="gradient"><path d="m432 164h-348a48.054 48.054 0 0 0 -48 48v248a48.054 48.054 0 0 0 48 48h348a12 12 0 0 0 12-12v-320a12 12 0 0 0 -12-12z" fill="url(#linear-gradient)"/><rect fill="url(#linear-gradient-2)" height="248" rx="12" width="360" x="84" y="212"/><path d="m464 276h-72a36.04 36.04 0 0 0 -36 36v48a36.04 36.04 0 0 0 36 36h72a12 12 0 0 0 12-12v-96a12 12 0 0 0 -12-12z" fill="url(#linear-gradient-3)"/><circle cx="416" cy="336" fill="#fef5de" r="12"/><path d="m256 324a20 20 0 0 1 0-40h32a12 12 0 0 0 0-24h-20v-4a12 12 0 0 0 -24 0v5.677a43.995 43.995 0 0 0 12 86.323 20 20 0 0 1 0 40h-32a12 12 0 0 0 0 24h20v4a12 12 0 0 0 24 0v-5.677a43.995 43.995 0 0 0 -12-86.323z" fill="#f4a46d"/><path d="m289.941 140a11.958 11.958 0 0 1 -8.485-3.515 36.04 36.04 0 0 0 -50.912 0 12 12 0 0 1 -16.971-16.97 60.069 60.069 0 0 1 84.854 0 12 12 0 0 1 -8.486 20.485z" fill="#b2d26b"/><path d="m323.882 106.059a11.958 11.958 0 0 1 -8.486-3.515 84 84 0 0 0 -118.792 0 12 12 0 0 1 -16.971-16.97 108 108 0 0 1 152.734 0 12 12 0 0 1 -8.485 20.485z" fill="#c5dd90"/><path d="m357.823 72.118a11.963 11.963 0 0 1 -8.485-3.515c-51.467-51.467-135.209-51.467-186.676 0a12 12 0 0 1 -16.971-16.971c60.825-60.824 159.793-60.824 220.618 0a12 12 0 0 1 -8.486 20.486z" fill="#d8e8b5"/></g></g></svg>