<svg id="Layer_1" enable-background="new 0 0 512 512" height="512" viewBox="0 0 512 512" width="512" xmlns="http://www.w3.org/2000/svg"><g><g><g><path d="m40 224h16v-16c0-4.418-3.582-8-8-8-4.418 0-8 3.582-8 8z" fill="#faa51e"/></g><g><path d="m48 264c4.418 0 8-3.582 8-8v-16h-16v16c0 4.418 3.582 8 8 8z" fill="#faa51e"/></g><g><path d="m40 240v-16h-16c-4.418 0-8 3.582-8 8 0 4.418 3.582 8 8 8z" fill="#faa51e"/></g><g><path d="m80 232c0-4.418-3.582-8-8-8h-16v16h16c4.418 0 8-3.582 8-8z" fill="#faa51e"/></g></g><g><g><path d="m448 160h16v-16c0-4.418-3.582-8-8-8-4.418 0-8 3.582-8 8z" fill="#faa51e"/></g><g><path d="m456 200c4.418 0 8-3.582 8-8v-16h-16v16c0 4.418 3.582 8 8 8z" fill="#faa51e"/></g><g><path d="m448 176v-16h-16c-4.418 0-8 3.582-8 8 0 4.418 3.582 8 8 8z" fill="#faa51e"/></g><g><path d="m488 168c0-4.418-3.582-8-8-8h-16v16h16c4.418 0 8-3.582 8-8z" fill="#faa51e"/></g></g><g><g><path d="m184 256h16v-16c0-4.418-3.582-8-8-8-4.418 0-8 3.582-8 8z" fill="#faa51e"/></g><g><path d="m192 296c4.418 0 8-3.582 8-8v-16h-16v16c0 4.418 3.582 8 8 8z" fill="#faa51e"/></g><g><path d="m184 272v-16h-16c-4.418 0-8 3.582-8 8 0 4.418 3.582 8 8 8z" fill="#faa51e"/></g><g><path d="m224 264c0-4.418-3.582-8-8-8h-16v16h16c4.418 0 8-3.582 8-8z" fill="#faa51e"/></g></g><g><g><path d="m328 319.667h-112c-4.418 0-8-3.582-8-8v-16c0-4.418 3.582-8 8-8h112c4.418 0 8 3.582 8 8v16c0 4.418-3.582 8-8 8z" fill="#faa51e"/></g><g><path d="m328 287.667h-56v32h56c4.418 0 8-3.582 8-8v-16c0-4.419-3.582-8-8-8z" fill="#f06423"/></g></g><g><g><path d="m312 351.667h-112c-4.418 0-8-3.582-8-8v-16c0-4.418 3.582-8 8-8h112c4.418 0 8 3.582 8 8v16c0 4.418-3.582 8-8 8z" fill="#ffcd06"/></g><g><path d="m312 319.667h-56v32h56c4.418 0 8-3.582 8-8v-16c0-4.419-3.582-8-8-8z" fill="#faa51e"/></g></g><g><g><path d="m328 415.667h-112c-4.418 0-8-3.582-8-8v-16c0-4.418 3.582-8 8-8h112c4.418 0 8 3.582 8 8v16c0 4.418-3.582 8-8 8z" fill="#ffcd06"/></g><g><path d="m328 383.667h-56v32h56c4.418 0 8-3.582 8-8v-16c0-4.419-3.582-8-8-8z" fill="#faa51e"/></g></g><g><g><path d="m312 447.667h-112c-4.418 0-8-3.582-8-8v-16c0-4.418 3.582-8 8-8h112c4.418 0 8 3.582 8 8v16c0 4.418-3.582 8-8 8z" fill="#faa51e"/></g><g><path d="m312 415.667h-56v32h56c4.418 0 8-3.582 8-8v-16c0-4.419-3.582-8-8-8z" fill="#f06423"/></g></g><g><g><path d="m328 383.667h-112c-4.418 0-8-3.582-8-8v-16c0-4.418 3.582-8 8-8h112c4.418 0 8 3.582 8 8v16c0 4.418-3.582 8-8 8z" fill="#faa51e"/></g><g><path d="m328 351.667h-56v32h56c4.418 0 8-3.582 8-8v-16c0-4.419-3.582-8-8-8z" fill="#f06423"/></g></g><g><g><path d="m472 256h-112c-4.418 0-8-3.582-8-8v-16c0-4.418 3.582-8 8-8h112c4.418 0 8 3.582 8 8v16c0 4.418-3.582 8-8 8z" fill="#faa51e"/></g><g><path d="m472 224h-56v32h56c4.418 0 8-3.582 8-8v-16c0-4.418-3.582-8-8-8z" fill="#f06423"/></g></g><g><g><path d="m456 288h-112c-4.418 0-8-3.582-8-8v-16c0-4.418 3.582-8 8-8h112c4.418 0 8 3.582 8 8v16c0 4.418-3.582 8-8 8z" fill="#ffcd06"/></g><g><path d="m456 256h-56v32h56c4.418 0 8-3.582 8-8v-16c0-4.418-3.582-8-8-8z" fill="#faa51e"/></g></g><g><g><path d="m472 320h-112c-4.418 0-8-3.582-8-8v-16c0-4.418 3.582-8 8-8h112c4.418 0 8 3.582 8 8v16c0 4.418-3.582 8-8 8z" fill="#faa51e"/></g><g><path d="m472 288h-56v32h56c4.418 0 8-3.582 8-8v-16c0-4.418-3.582-8-8-8z" fill="#f06423"/></g></g><g><g><path d="m56 351.667h112c4.418 0 8-3.582 8-8v-16c0-4.418-3.582-8-8-8h-112c-4.418 0-8 3.582-8 8v16c0 4.418 3.582 8 8 8z" fill="#faa51e"/></g><g><path d="m56 319.667h56v32h-56c-4.418 0-8-3.582-8-8v-16c0-4.419 3.582-8 8-8z" fill="#ffcd06"/></g></g><g><g><path d="m40 415.667h112c4.418 0 8-3.582 8-8v-16c0-4.418-3.582-8-8-8h-112c-4.418 0-8 3.582-8 8v16c0 4.418 3.582 8 8 8z" fill="#faa51e"/></g><g><path d="m40 383.667h56v32h-56c-4.418 0-8-3.582-8-8v-16c0-4.419 3.582-8 8-8z" fill="#ffcd06"/></g></g><g><g><path d="m40 447.667h112c4.418 0 8-3.582 8-8v-16c0-4.418-3.582-8-8-8h-112c-4.418 0-8 3.582-8 8v16c0 4.418 3.582 8 8 8z" fill="#f06423"/></g><g><path d="m40 415.667h56v32h-56c-4.418 0-8-3.582-8-8v-16c0-4.419 3.582-8 8-8z" fill="#faa51e"/></g></g><g><g><path d="m24 383.667h112c4.418 0 8-3.582 8-8v-16c0-4.418-3.582-8-8-8h-112c-4.418 0-8 3.582-8 8v16c0 4.418 3.582 8 8 8z" fill="#f06423"/></g><g><path d="m24 351.667h56v32h-56c-4.418 0-8-3.582-8-8v-16c0-4.419 3.582-8 8-8z" fill="#faa51e"/></g></g><g><g><path d="m360 352h112c4.418 0 8-3.582 8-8v-16c0-4.418-3.582-8-8-8h-112c-4.418 0-8 3.582-8 8v16c0 4.418 3.582 8 8 8z" fill="#faa51e"/></g><g><path d="m360 320h56v32h-56c-4.418 0-8-3.582-8-8v-16c0-4.418 3.582-8 8-8z" fill="#ffcd06"/></g></g><g><g><path d="m360 416h112c4.418 0 8-3.582 8-8v-16c0-4.418-3.582-8-8-8h-112c-4.418 0-8 3.582-8 8v16c0 4.418 3.582 8 8 8z" fill="#faa51e"/></g><g><path d="m360 384h56v32h-56c-4.418 0-8-3.582-8-8v-16c0-4.418 3.582-8 8-8z" fill="#ffcd06"/></g></g><g><g><path d="m360 448h112c4.418 0 8-3.582 8-8v-16c0-4.418-3.582-8-8-8h-112c-4.418 0-8 3.582-8 8v16c0 4.418 3.582 8 8 8z" fill="#f06423"/></g><g><path d="m360 416h56v32h-56c-4.418 0-8-3.582-8-8v-16c0-4.418 3.582-8 8-8z" fill="#faa51e"/></g></g><g><g><path d="m376 384h112c4.418 0 8-3.582 8-8v-16c0-4.418-3.582-8-8-8h-112c-4.418 0-8 3.582-8 8v16c0 4.418 3.582 8 8 8z" fill="#f06423"/></g><g><path d="m376 352h56v32h-56c-4.418 0-8-3.582-8-8v-16c0-4.418 3.582-8 8-8z" fill="#faa51e"/></g></g><path d="m436 68c-2.561-2.561-6.035-4-9.657-4h-47.03c-2.122 0-4.156.843-5.657 2.343-3.124 3.124-3.124 8.189 0 11.313l15.03 15.03-116.686 116.687-52.687-52.686c-6.248-6.249-16.379-6.249-22.627 0l-112 112c-6.249 6.248-6.249 16.379 0 22.627 3.125 3.124 7.219 4.686 11.314 4.686s8.189-1.562 11.313-4.687l100.687-100.686 52.687 52.686c6.248 6.249 16.379 6.249 22.627 0l128-128 15.03 15.03c3.124 3.124 8.189 3.124 11.313 0 1.5-1.5 2.343-3.535 2.343-5.657v-47.03c0-3.621-1.439-7.095-4-9.656z" fill="#5f78be"/></g></svg>