<svg id="line_icons" height="512" viewBox="0 0 74 74" width="512" xmlns="http://www.w3.org/2000/svg" data-name="line icons"><path d="m51.372 72.083h-28.744a4.918 4.918 0 0 1 -4.9-4.6l-2.628-40.335a1 1 0 0 1 1-1.065h41.8a1 1 0 0 1 1 1.065l-2.629 40.337a4.917 4.917 0 0 1 -4.899 4.598zm-34.2-44 2.558 39.272a2.912 2.912 0 0 0 2.9 2.728h28.742a2.912 2.912 0 0 0 2.9-2.726l2.558-39.274z"/><path d="m57.957 20.75h-41.914a1 1 0 0 1 -.955-1.3l4.443-14.25a4.653 4.653 0 0 1 4.462-3.282h26.014a4.656 4.656 0 0 1 4.463 3.282l4.442 14.254a1 1 0 0 1 -.955 1.3zm-40.555-2h39.198l-4.04-12.956a2.661 2.661 0 0 0 -2.553-1.877h-26.014a2.66 2.66 0 0 0 -2.552 1.877z"/><path d="m59.716 28.083h-45.432a2.846 2.846 0 0 1 -2.843-2.842v-3.648a2.846 2.846 0 0 1 2.843-2.843h45.432a2.846 2.846 0 0 1 2.843 2.843v3.648a2.846 2.846 0 0 1 -2.843 2.842zm-45.432-7.333a.844.844 0 0 0 -.843.843v3.648a.843.843 0 0 0 .843.842h45.432a.843.843 0 0 0 .843-.842v-3.648a.844.844 0 0 0 -.843-.843z"/><path d="m44.668 12.917h-15.336a3.292 3.292 0 0 1 0-6.584h15.336a3.292 3.292 0 1 1 0 6.584zm-15.336-4.584a1.292 1.292 0 0 0 0 2.584h15.336a1.292 1.292 0 1 0 0-2.584z"/><path d="m29.081 59.765h-2.025a2.906 2.906 0 0 1 -2.578-4.25l6.7-12.851a1 1 0 1 1 1.773.924l-6.7 12.851a.907.907 0 0 0 .8 1.326h2.025a1 1 0 1 1 0 2z"/><path d="m44.9 49.664a1 1 0 0 1 -.885-.533l-6.21-11.764a.908.908 0 0 0 -1.612 0l-.962 1.846a1 1 0 1 1 -1.773-.924l.962-1.847a2.908 2.908 0 0 1 5.156 0l6.21 11.758a1 1 0 0 1 -.418 1.351.987.987 0 0 1 -.468.113z"/><path d="m46.944 59.765h-12.6a1 1 0 1 1 0-2h12.6a.907.907 0 0 0 .8-1.327l-1.028-1.972a1 1 0 1 1 1.773-.924l1.028 1.972a2.907 2.907 0 0 1 -2.578 4.251z"/><path d="m33.089 48.861a1 1 0 0 1 -.977-.789l-.767-3.562-3.361 1.4a1 1 0 0 1 -.767-1.847l4.469-1.863a1 1 0 0 1 1.361.713l1.02 4.735a1 1 0 0 1 -.766 1.188 1.039 1.039 0 0 1 -.212.025z"/><path d="m44.9 49.664a1.01 1.01 0 0 1 -.342-.06l-4.551-1.661a1 1 0 0 1 .685-1.879l3.423 1.249.609-3.588a1 1 0 0 1 1.972.335l-.809 4.772a1 1 0 0 1 -.987.832z"/><path d="m37.88 63.075a1 1 0 0 1 -.684-.27l-3.533-3.305a1 1 0 0 1 .089-1.534l3.894-2.88a1 1 0 1 1 1.19 1.608l-2.93 2.166 2.657 2.487a1 1 0 0 1 -.683 1.73z"/></svg>